<svg width="360" height="305" viewBox="0 0 360 305" fill="none" xmlns="http://www.w3.org/2000/svg">
<path d="M211.409 78.406H200.736C200.192 78.4054 199.67 78.189 199.285 77.8042C198.901 77.4194 198.684 76.8977 198.684 76.3535V65.6804C198.684 65.1363 198.901 64.6146 199.285 64.2298C199.67 63.845 200.192 63.6286 200.736 63.6279H211.409C211.953 63.6286 212.475 63.845 212.86 64.2298C213.245 64.6146 213.461 65.1363 213.462 65.6804V76.3535C213.461 76.8977 213.245 77.4194 212.86 77.8042C212.475 78.189 211.953 78.4054 211.409 78.406ZM200.736 64.4489C200.41 64.4493 200.097 64.5792 199.866 64.81C199.635 65.0409 199.505 65.3539 199.505 65.6804V76.3535C199.505 76.68 199.635 76.9931 199.866 77.2239C200.097 77.4548 200.41 77.5847 200.736 77.585H211.409C211.736 77.5847 212.049 77.4548 212.28 77.2239C212.51 76.9931 212.64 76.68 212.641 76.3535V65.6804C212.64 65.3539 212.51 65.0409 212.28 64.81C212.049 64.5792 211.736 64.4493 211.409 64.4489H200.736Z" fill="#E6E6E6"/>
<path d="M87.0267 14.7781H76.3536C75.8094 14.7775 75.2877 14.561 74.9029 14.1763C74.5181 13.7915 74.3017 13.2698 74.3011 12.7256V2.05252C74.3017 1.50835 74.5181 0.986642 74.9029 0.601856C75.2877 0.217069 75.8094 0.000622549 76.3536 0H87.0267C87.5709 0.000622549 88.0926 0.217069 88.4773 0.601856C88.8621 0.986642 89.0786 1.50835 89.0792 2.05252V12.7256C89.0786 13.2698 88.8621 13.7915 88.4773 14.1763C88.0926 14.561 87.5709 14.7775 87.0267 14.7781ZM76.3536 0.821007C76.0271 0.821363 75.7141 0.951225 75.4832 1.1821C75.2523 1.41298 75.1224 1.72601 75.1221 2.05252V12.7256C75.1224 13.0521 75.2523 13.3651 75.4832 13.596C75.7141 13.8269 76.0271 13.9568 76.3536 13.9571H87.0267C87.3532 13.9568 87.6662 13.8269 87.8971 13.596C88.128 13.3651 88.2578 13.0521 88.2582 12.7256V2.05252C88.2578 1.72601 88.128 1.41298 87.8971 1.1821C87.6662 0.951225 87.3532 0.821363 87.0267 0.821007H76.3536Z" fill="#E6E6E6"/>
<path d="M204.841 73.0696H194.168C193.624 73.069 193.102 72.8526 192.717 72.4678C192.333 72.083 192.116 71.5613 192.116 71.0171V60.344C192.116 59.7999 192.333 59.2781 192.717 58.8934C193.102 58.5086 193.624 58.2921 194.168 58.2915H204.841C205.385 58.2921 205.907 58.5086 206.292 58.8934C206.677 59.2781 206.893 59.7999 206.894 60.344V71.0171C206.893 71.5613 206.677 72.083 206.292 72.4678C205.907 72.8526 205.385 73.069 204.841 73.0696ZM194.168 59.1125C193.842 59.1129 193.528 59.2427 193.298 59.4736C193.067 59.7045 192.937 60.0175 192.937 60.344V71.0171C192.937 71.3436 193.067 71.6566 193.298 71.8875C193.528 72.1184 193.842 72.2483 194.168 72.2486H204.841C205.168 72.2483 205.481 72.1184 205.712 71.8875C205.942 71.6566 206.072 71.3436 206.073 71.0171V60.344C206.072 60.0175 205.942 59.7045 205.712 59.4736C205.481 59.2427 205.168 59.1129 204.841 59.1125H194.168Z" fill="#E6E6E6"/>
<path d="M19.2937 162.149H8.62057C8.0764 162.148 7.5547 161.932 7.16991 161.547C6.78512 161.162 6.56868 160.64 6.56805 160.096V149.423C6.56868 148.879 6.78512 148.357 7.16991 147.972C7.5547 147.588 8.0764 147.371 8.62057 147.371H19.2937C19.8378 147.371 20.3595 147.588 20.7443 147.972C21.1291 148.357 21.3455 148.879 21.3462 149.423V160.096C21.3455 160.64 21.1291 161.162 20.7443 161.547C20.3595 161.932 19.8378 162.148 19.2937 162.149ZM8.62057 148.192C8.29406 148.192 7.98103 148.322 7.75016 148.553C7.51928 148.784 7.38942 149.097 7.38906 149.423V160.096C7.38942 160.423 7.51928 160.736 7.75016 160.967C7.98103 161.197 8.29406 161.327 8.62057 161.328H19.2937C19.6202 161.327 19.9332 161.197 20.1641 160.967C20.3949 160.736 20.5248 160.423 20.5252 160.096V149.423C20.5248 149.097 20.3949 148.784 20.1641 148.553C19.9332 148.322 19.6202 148.192 19.2937 148.192H8.62057Z" fill="#E6E6E6"/>
<path d="M12.7256 156.812H2.05252C1.50835 156.812 0.986642 156.595 0.601856 156.21C0.217069 155.826 0.000622549 155.304 0 154.76V144.087C0.000622549 143.543 0.217069 143.021 0.601856 142.636C0.986642 142.251 1.50835 142.035 2.05252 142.034H12.7256C13.2698 142.035 13.7915 142.251 14.1763 142.636C14.561 143.021 14.7775 143.543 14.7781 144.087V154.76C14.7775 155.304 14.561 155.826 14.1763 156.21C13.7915 156.595 13.2698 156.812 12.7256 156.812ZM2.05252 142.855C1.72601 142.856 1.41298 142.985 1.1821 143.216C0.951225 143.447 0.821363 143.76 0.821007 144.087V154.76C0.821363 155.086 0.951225 155.399 1.1821 155.63C1.41298 155.861 1.72601 155.991 2.05252 155.991H12.7256C13.0521 155.991 13.3651 155.861 13.596 155.63C13.8269 155.399 13.9568 155.086 13.9571 154.76V144.087C13.9568 143.76 13.8269 143.447 13.596 143.216C13.3651 142.985 13.0521 142.856 12.7256 142.855H2.05252Z" fill="#E6E6E6"/>
<path d="M37.9426 35.3193H136.716C141.482 35.3193 146.107 36.9409 149.829 39.9176C153.552 42.8943 156.151 47.049 157.199 51.6986L207.107 273.07C207.652 275.484 207.661 277.989 207.136 280.407C206.61 282.826 205.561 285.1 204.063 287.071C202.566 289.041 200.655 290.661 198.465 291.815C196.276 292.969 193.86 293.63 191.388 293.752L89.848 298.755C84.4108 299.022 79.0619 297.303 74.7994 293.917C70.5369 290.531 67.652 285.71 66.6831 280.353L38.3721 123.841L36.2658 124.443L30.8488 94.7779L33.0168 94.2359L25.1143 50.5479C24.7758 48.6766 24.8543 46.7538 25.3441 44.9163C25.834 43.0789 26.7232 41.3722 27.9484 39.9178C29.1735 38.4634 30.7044 37.2973 32.4319 36.5024C34.1594 35.7075 36.041 35.3036 37.9426 35.3193Z" fill="#3F3D56"/>
<path d="M123.713 40.0913H135.242C138.554 40.0913 141.765 41.2237 144.344 43.3006C146.923 45.3774 148.714 48.2738 149.42 51.5088L197.325 271.074C197.601 272.338 197.6 273.647 197.324 274.911C197.048 276.175 196.502 277.364 195.724 278.398C194.945 279.432 193.953 280.285 192.815 280.9C191.677 281.516 190.419 281.878 189.128 281.962L87.9168 288.596C85.0614 288.783 82.2371 287.912 79.9829 286.15C77.7286 284.387 76.2022 281.856 75.695 279.04L34.8173 52.0986C34.5527 50.6298 34.6137 49.1207 34.996 47.678C35.3783 46.2353 36.0726 44.8941 37.0299 43.749C37.9871 42.6039 39.184 41.6829 40.5361 41.0509C41.8882 40.4189 43.3625 40.0913 44.855 40.0913H55.7929C56.8515 40.0913 57.8806 40.4403 58.7208 41.0843C59.5611 41.7282 60.1656 42.6312 60.4409 43.6534C60.6838 44.5559 61.2175 45.3531 61.9593 45.9216C62.7011 46.4901 63.6096 46.7982 64.5442 46.7982H116.47C118.3 46.7982 120.063 46.1074 121.406 44.8639C122.748 43.6205 123.572 41.916 123.713 40.0913Z" fill="white"/>
<path d="M42.6923 77.4233H152.492L164.189 130.129L52.9549 132.182L42.6923 77.4233Z" fill="#0083FF"/>
<path d="M146.96 177.236H172.81L173.631 182.185H147.781L146.96 177.236Z" fill="#0083FF"/>
<path d="M167.992 151.991L58.3614 154.313L58.3723 154.829L168.003 152.507L167.992 151.991Z" fill="#2F2E41"/>
<path d="M171.345 167.21L59.6506 169.79L59.6625 170.306L171.357 167.726L171.345 167.21Z" fill="#2F2E41"/>
<path d="M157.633 230.191H183.483L184.304 235.14H158.454L157.633 230.191Z" fill="#0083FF"/>
<path d="M178.665 204.946L69.0344 207.268L69.0453 207.783L178.676 205.462L178.665 204.946Z" fill="#2F2E41"/>
<path d="M182.018 220.166L70.3237 222.746L70.3356 223.262L182.03 220.682L182.018 220.166Z" fill="#2F2E41"/>
<path d="M252.689 300.163L247.798 300.163L245.471 281.297L252.69 281.298L252.689 300.163Z" fill="#A0616A"/>
<path d="M253.937 304.904L238.166 304.904V304.704C238.166 303.076 238.812 301.515 239.964 300.364C241.115 299.213 242.676 298.566 244.304 298.566L253.937 298.566L253.937 304.904Z" fill="#2F2E41"/>
<path d="M313.45 296.96L308.69 298.081L302.1 280.251L309.127 278.597L313.45 296.96Z" fill="#A0616A"/>
<path d="M315.752 301.289L300.4 304.904L300.355 304.71C299.982 303.125 300.253 301.458 301.11 300.073C301.966 298.689 303.338 297.701 304.923 297.328L314.299 295.12L315.752 301.289Z" fill="#2F2E41"/>
<path d="M251.69 220.591C251.699 219.607 251.99 196.406 258.35 187.633L258.444 187.503L280.608 190.561L280.113 195.431C281.087 196.379 288.756 204.392 290.97 223.367L314.495 286.55L303.558 287.544L271.184 218.572L254.052 293.544H243.21L251.69 220.591Z" fill="#2F2E41"/>
<path d="M255.754 188.489L257.92 177.114C257.496 176.568 255.617 173.946 256.035 170.873C256.308 168.868 257.505 167.11 259.594 165.646L265.209 152.542L265.285 152.498C265.663 152.275 274.604 147.105 279.479 151.983C279.601 152.077 291.602 161.604 286.783 174.456L280.833 192.307L255.754 188.489Z" fill="#CCCCCC"/>
<path d="M248.216 203.877C248.8 203.81 249.363 203.616 249.864 203.309C250.365 203.001 250.792 202.587 251.116 202.096C251.44 201.606 251.652 201.05 251.738 200.468C251.824 199.886 251.781 199.293 251.613 198.729L263.21 190.374L256.268 187.733L246.319 196.073C245.392 196.418 244.623 197.092 244.159 197.967C243.695 198.841 243.567 199.855 243.801 200.817C244.035 201.779 244.613 202.622 245.427 203.186C246.241 203.75 247.233 203.996 248.216 203.877Z" fill="#A0616A"/>
<path d="M250.347 190.361L268.052 176.412L262.789 158.428C262.541 157.577 262.471 156.683 262.583 155.803C262.695 154.923 262.987 154.076 263.441 153.314C263.861 152.596 264.427 151.973 265.102 151.486C265.777 150.999 266.546 150.658 267.36 150.486C270.391 149.844 273.142 151.541 275.536 155.531L275.554 155.567C275.95 156.535 285.174 179.335 278.131 184.211C271.242 188.981 255.266 195.924 255.106 195.994L254.918 196.074L250.347 190.361Z" fill="#CCCCCC"/>
<path d="M273.878 147.241C279.802 147.241 284.604 142.439 284.604 136.516C284.604 130.592 279.802 125.79 273.878 125.79C267.955 125.79 263.153 130.592 263.153 136.516C263.153 142.439 267.955 147.241 273.878 147.241Z" fill="#A0616A"/>
<path d="M290.693 132.687C295.934 132.687 300.182 128.438 300.182 123.198C300.182 117.958 295.934 113.709 290.693 113.709C285.453 113.709 281.205 117.958 281.205 123.198C281.205 128.438 285.453 132.687 290.693 132.687Z" fill="#2F2E41"/>
<path d="M298.878 131.055C297.649 131.943 296.227 132.523 294.728 132.748C293.23 132.973 291.699 132.836 290.264 132.348C288.83 131.861 287.533 131.036 286.482 129.944C285.431 128.853 284.657 127.525 284.225 126.073C284.388 127.374 284.82 128.628 285.493 129.754C286.165 130.88 287.064 131.855 288.132 132.616C289.2 133.377 290.415 133.909 291.699 134.177C292.982 134.446 294.308 134.445 295.592 134.175C296.875 133.905 298.089 133.372 299.156 132.609C300.224 131.847 301.121 130.871 301.792 129.744C302.464 128.617 302.894 127.363 303.056 126.062C303.218 124.76 303.109 123.439 302.734 122.182C302.947 123.871 302.701 125.586 302.022 127.147C301.344 128.708 300.257 130.058 298.878 131.055Z" fill="#2F2E41"/>
<path d="M261.432 131.066C263.088 128.1 263.722 126.861 265.858 125.058C267.746 123.463 270.07 122.995 271.943 124.506C274.16 123.548 276.627 123.331 278.976 123.887C281.326 124.442 283.434 125.741 284.987 127.59C286.54 129.439 287.455 131.74 287.597 134.151C287.738 136.561 287.098 138.953 285.771 140.971C284.445 142.989 282.503 144.525 280.234 145.351C277.965 146.178 275.49 146.25 273.177 145.558C270.863 144.865 268.835 143.445 267.393 141.508C265.951 139.572 265.172 137.221 265.172 134.806C265.174 134.382 265.2 133.959 265.249 133.537C263.62 133.309 263.06 131.294 261.432 131.066Z" fill="#2F2E41"/>
</svg>
