<svg width="360" height="305" viewBox="0 0 360 305" fill="none" xmlns="http://www.w3.org/2000/svg">
<path d="M234.701 144.685C233.915 144.798 233.113 144.738 232.352 144.508C231.591 144.278 230.89 143.885 230.298 143.355C229.706 142.825 229.237 142.172 228.925 141.441C228.612 140.71 228.464 139.92 228.49 139.126L210.456 132.196L218.621 126.355L234.494 133.831C235.826 133.963 237.063 134.58 237.971 135.563C238.879 136.546 239.394 137.828 239.419 139.166C239.445 140.504 238.979 141.805 238.109 142.822C237.239 143.84 236.026 144.502 234.701 144.685L234.701 144.685Z" fill="#FFB7B7"/>
<path d="M224.397 139.713L227.212 129.781L227.074 129.687L200.699 111.771L177.9 88.8945L164.619 94.2007L165.491 98.4042L165.548 98.4558L195.861 125.606L195.889 125.62L224.397 139.713Z" fill="#E6E7E8"/>
<path d="M197.378 162.399L156.56 156.678L160.153 131.632H190.203L197.378 162.399Z" fill="#FFB6B6"/>
<path d="M128.022 285.043L136.395 286.988L147.884 255.619L135.527 252.747L128.022 285.043Z" fill="#FFB6B6"/>
<path d="M120.231 298.523L126.236 299.918L128.625 294.498L130.053 300.805L145.978 304.506C146.742 304.683 147.542 304.612 148.262 304.303C148.982 303.993 149.584 303.462 149.981 302.786C150.377 302.11 150.547 301.325 150.466 300.545C150.385 299.766 150.056 299.033 149.529 298.453L138.852 286.714L140.184 280.983L126.622 278.673L120.231 298.523Z" fill="#2F2E41"/>
<path d="M179.686 289.708H188.282L192.373 256.552H179.686V289.708Z" fill="#FFB6B6"/>
<path d="M175.149 304.602H181.313L182.414 298.782L185.232 304.602H201.582C202.365 304.602 203.129 304.352 203.76 303.887C204.391 303.423 204.858 302.769 205.091 302.02C205.324 301.272 205.312 300.469 205.056 299.728C204.801 298.987 204.315 298.347 203.67 297.902L190.614 288.885V283.001L176.88 283.821L175.149 304.602Z" fill="#2F2E41"/>
<path d="M156.044 152.428L195.962 149.252C207.741 176.769 200.251 220.695 191.199 270.144L178.36 271.804L177.364 192.346L145.178 266.266L131.796 265.582L156.044 152.428Z" fill="#2F2E41"/>
<path d="M179.279 79.9699V66.4651C179.281 64.0879 178.813 61.7338 177.905 59.5372C176.996 57.3406 175.663 55.3447 173.982 53.6633C172.302 51.982 170.307 50.6482 168.111 49.7382C165.914 48.8282 163.561 48.3599 161.183 48.3599C158.806 48.3599 156.452 48.8282 154.256 49.7382C152.06 50.6482 150.065 51.982 148.384 53.6633C146.704 55.3447 145.371 57.3406 144.462 59.5372C143.553 61.7338 143.086 64.0879 143.087 66.4651C139.898 73.1114 141.893 76.2712 143.087 79.9699C143.088 80.614 143.345 81.2314 143.8 81.6868C144.255 82.1423 144.873 82.3986 145.517 82.3997H176.849C177.493 82.3989 178.111 82.1427 178.566 81.6872C179.022 81.2318 179.278 80.6142 179.279 79.9699Z" fill="#2F2E41"/>
<path d="M165.649 82.1959C172.977 82.1959 178.917 76.2558 178.917 68.9283C178.917 61.6008 172.977 55.6606 165.649 55.6606C158.322 55.6606 152.382 61.6008 152.382 68.9283C152.382 76.2558 158.322 82.1959 165.649 82.1959Z" fill="#FFB7B7"/>
<path d="M183.56 67.5452C183.556 63.75 182.047 60.1115 179.363 57.4279C176.679 54.7443 173.041 53.2347 169.246 53.2305H166.545C162.749 53.2348 159.111 54.7443 156.427 57.4279C153.744 60.1115 152.234 63.75 152.23 67.5452V67.8154C154.253 69.1983 156.173 69.4006 157.938 67.8154L159.885 62.364L160.274 67.8154H163.225L164.208 65.0651L164.405 67.8154C168.39 71.2092 175.925 69.5829 183.561 67.8154L183.56 67.5452Z" fill="#2F2E41"/>
<path d="M157.913 138.952L191.693 137.667L193.581 115.567C195.038 111.522 195.061 108.047 193.651 105.244C192.439 102.941 190.401 101.18 187.947 100.314L180.555 91.3861C179.604 90.2386 178.41 89.3168 177.06 88.6871C175.709 88.0574 174.235 87.7356 172.745 87.7449L153.538 87.8762C153.076 87.598 150.268 86.1708 144.729 88.5705C138.723 91.1738 140.118 100.218 140.133 100.309L140.146 100.394L140.212 100.452L152.987 111.212L157.913 138.952Z" fill="#E6E7E8"/>
<path d="M247.53 171.028C247.505 183.902 242.665 196.301 233.961 205.788C225.257 215.274 213.32 221.161 200.496 222.292C187.671 223.423 174.888 219.716 164.658 211.9C154.428 204.083 147.492 192.723 145.214 180.052C142.936 167.381 145.48 154.316 152.347 143.425C159.213 132.535 169.904 124.607 182.32 121.2C194.735 117.793 207.975 119.154 219.438 125.014C230.901 130.875 239.757 140.811 244.266 152.87C244.378 153.173 244.488 153.476 244.594 153.782V153.785C245.07 155.128 245.489 156.497 245.852 157.891C246.97 162.181 247.534 166.596 247.53 171.028Z" fill="#0083FF"/>
<path d="M189.938 136.003C187.605 134.742 185.015 134.03 182.365 133.921C179.715 133.813 177.075 134.311 174.647 135.378C172.509 136.308 170.258 137.977 169.545 140.992C172.429 139.289 176.163 141.979 176.906 146.294L176.732 146.342C176.34 149.33 177.215 152.584 178.91 154.437C179.036 153.601 179.347 152.803 179.819 152.102C180.292 151.401 180.915 150.814 181.643 150.384C182.888 149.565 184.265 148.971 185.215 147.564C186.342 145.897 186.628 143.459 187.075 141.236C187.523 139.013 188.372 136.623 189.938 136.003Z" fill="white"/>
<path d="M173.792 161.436C172.993 162.636 171.926 163.389 170.968 164.326C169.863 165.331 169.138 166.687 168.915 168.164C168.794 169.208 168.981 170.27 168.955 171.325C168.929 172.381 168.577 173.569 167.859 173.832C166.726 174.241 165.86 172.136 164.695 171.989C163.77 171.873 162.936 173.33 163.204 174.593C163.473 175.856 164.733 176.416 165.457 175.591C166.111 176.69 165.65 178.683 164.667 179.02C164.563 179.712 164.459 180.401 164.358 181.094C161.872 179.354 159.36 177.587 157.246 175.04C154.895 172.232 153.437 168.785 153.058 165.142C152.784 162.215 153.191 158.866 151.847 156.614C150.771 154.811 148.926 154.413 147.264 154.526C146.961 154.546 146.656 154.581 146.353 154.618C147.333 151.676 148.577 148.828 150.07 146.11C150.408 145.965 150.723 145.77 151.002 145.531C152.548 144.218 153.234 141.562 154.489 139.725C154.57 139.607 154.653 139.491 154.74 139.379C156.023 137.703 157.742 136.841 159.403 136.039C163.08 134.254 166.864 132.446 170.746 132.694L169.641 132.801C168.352 136.411 167.062 140.022 165.771 143.633C165.575 144.187 165.377 144.741 165.177 145.297C164.444 147.35 163.689 149.537 163.801 151.835C163.868 153.196 164.341 154.65 165.24 155.117C166.08 155.55 166.997 155.019 167.807 154.494C168.15 154.275 168.491 154.056 168.834 153.834C170.065 153.041 171.43 152.227 172.73 152.758C173.921 153.242 174.801 154.86 174.968 156.605C175.122 158.301 174.708 160 173.792 161.436Z" fill="white"/>
<path d="M181.116 186.088C177.519 183.873 173.922 181.659 170.326 179.444L170.387 179.287C168.151 180.139 167.222 184.114 167.592 187.365C167.961 190.615 169.214 193.521 169.847 196.689C170.701 201.023 170.379 205.507 168.914 209.675C173.644 204.369 177.829 198.601 181.408 192.459C181.908 191.685 182.289 190.841 182.538 189.954C182.802 189.008 182.708 187.999 182.274 187.118C181.979 186.684 181.581 186.33 181.116 186.088Z" fill="white"/>
<path d="M166.921 145.799C166.499 146.706 166.434 147.739 166.739 148.691C167.094 149.459 167.737 150.055 168.53 150.35L170.517 151.335C171.178 151.663 171.891 151.994 172.565 151.724C173.378 151.399 173.941 150.125 173.796 148.942C173.64 147.683 172.847 146.817 172.113 146.079C171.086 145.047 170.059 144.015 169.031 142.983L168.453 143.692C167.827 144.303 167.309 145.015 166.921 145.799Z" fill="white"/>
<path d="M236.877 159.259C237.771 159.469 238.665 159.68 239.559 159.89C239.403 162.91 237.906 165.705 235.899 166.717C235.063 167.138 234.131 167.294 233.439 168.081C232.813 168.796 232.496 169.909 232.205 170.974C231.694 172.831 231.184 174.688 230.673 176.545C230.125 178.547 229.422 180.771 227.997 181.492C226.774 182.112 225.375 181.353 224.435 180.081C223.495 178.81 222.921 177.099 222.364 175.432C222.399 177.249 221.554 179.032 220.357 179.663C219.157 180.295 217.698 179.724 216.896 178.313C216.319 177.301 216.08 175.966 215.515 174.939C214.95 173.912 213.764 173.324 213.147 174.287C212.74 174.928 212.792 175.908 212.59 176.721C212.489 177.261 212.221 177.756 211.825 178.137C211.429 178.518 210.925 178.766 210.381 178.847C209.881 178.836 209.389 178.722 208.935 178.515C208.48 178.307 208.072 178.009 207.737 177.639C205.97 175.832 204.821 173.513 204.452 171.014C204.201 169.816 204.233 168.576 204.544 167.392C204.899 166.27 205.755 165.405 206.606 165.618C207.166 164.435 206.061 162.867 205.066 163.005C204.068 163.143 203.287 164.213 202.467 165.035C201.651 165.857 200.509 166.454 199.687 165.638C199.706 165.937 199.605 166.23 199.407 166.454C199.208 166.678 198.929 166.815 198.631 166.833C198.601 166.835 198.572 166.836 198.542 166.835C197.996 166.678 197.488 166.409 197.051 166.045C195.168 164.871 192.777 165.65 191.439 167.87C192.275 164.311 193.501 160.228 196.071 159.391C197.121 159.048 198.265 159.331 199.258 158.737C201.014 157.684 201.369 153.707 199.852 152.066C200.045 153.618 200.007 155.429 199.188 156.49C198.369 157.551 196.65 156.859 196.754 155.29C196.731 155.511 196.638 155.719 196.49 155.883C196.341 156.048 196.144 156.162 195.927 156.208C195.71 156.254 195.484 156.23 195.282 156.14C195.079 156.05 194.91 155.898 194.799 155.706C194.254 154.875 194.3 153.517 194.686 152.525C195.085 151.626 195.656 150.815 196.368 150.137C197.738 148.669 199.128 147.183 200.714 146.26C202.303 145.338 204.137 145.026 205.729 145.943C206.569 146.428 207.307 147.235 208.163 147.662C208.365 147.787 208.589 147.871 208.822 147.909C209.056 147.948 209.295 147.94 209.526 147.886C209.756 147.832 209.974 147.733 210.167 147.595C210.359 147.456 210.522 147.282 210.647 147.08C210.657 147.065 210.666 147.049 210.675 147.033C211.313 145.914 211.013 144.253 211.249 142.854C211.673 140.383 214.145 139.226 215.515 140.859C214.491 140.596 213.433 141.807 213.306 143.275C213.176 144.743 213.917 146.226 214.909 146.67C216.576 147.408 218.209 145.551 219.469 143.832C220.784 142.032 222.101 140.234 223.42 138.436C223.631 138.13 223.867 137.842 224.127 137.577C224.54 137.174 225.09 136.943 225.667 136.932C226.244 136.92 226.803 137.128 227.233 137.513C228.565 138.6 229.191 140.83 230.284 142.364C231.87 144.593 234.244 145.136 236.453 145.568C238.1 145.888 239.747 146.21 241.396 146.534C242.495 148.579 243.454 150.696 244.266 152.871C241.242 154.249 238.678 156.466 236.877 159.259Z" fill="white"/>
<path d="M245.852 157.892C245.514 158.887 245.329 159.929 245.304 160.98C243.891 159.256 243.666 156.023 244.594 153.785C245.07 155.129 245.489 156.498 245.852 157.892Z" fill="white"/>
<path d="M242.201 193.959C240.965 196.468 239.528 198.873 237.903 201.149C236.865 200.705 235.749 201.498 234.777 202.242C233.762 203.021 232.542 203.779 231.501 203.07C230.437 202.343 230.094 200.31 230.431 198.698C230.819 197.21 231.497 195.815 232.427 194.591C233.292 193.299 234.218 191.958 235.42 191.456C236.626 190.954 238.175 191.664 238.526 193.377L239.38 193.348C238.901 192.69 239.152 191.329 239.795 191.09C240.537 190.81 241.18 191.828 241.618 192.728C241.814 193.134 242.013 193.544 242.201 193.959Z" fill="white"/>
<path d="M209.506 181.777C207.671 181.893 206.217 179.634 205.252 177.412C204.286 175.19 203.404 172.648 201.749 171.517C200.803 170.871 199.724 170.782 198.698 170.469C198.116 170.322 197.578 170.038 197.127 169.642C196.676 169.245 196.327 168.747 196.107 168.188L194.943 167.718C193.315 168.532 191.824 169.595 190.524 170.869C189.039 172.447 188.113 174.47 187.891 176.626C187.669 178.956 188.49 181.553 190.024 182.429C191.236 183.12 192.647 182.684 193.875 183.317C195.409 184.108 196.32 186.406 196.665 188.675C197.01 190.943 196.922 193.301 197.169 195.596C197.416 197.89 198.096 200.278 199.502 201.453C201.263 202.925 203.847 201.702 204.636 199.024C205.024 197.71 205.011 196.227 205.3 194.864C205.811 192.462 207.188 190.68 208.28 188.71C209.372 186.74 210.232 184.064 209.506 181.777Z" fill="white"/>
<path d="M191.374 158.177C191.545 158.334 191.705 158.504 191.852 158.684C192.004 158.947 192.082 159.246 192.077 159.549C192.071 159.852 191.984 160.148 191.823 160.405C192.044 160.393 192.26 160.334 192.457 160.234C192.654 160.134 192.829 159.994 192.969 159.822C193.304 159.441 193.599 159.026 193.848 158.584C193.966 158.433 194.049 158.258 194.094 158.072C194.139 157.886 194.143 157.692 194.107 157.504C194.021 157.256 193.816 157.151 193.672 156.965C193.473 156.601 193.337 156.206 193.27 155.797C193.19 155.413 193.005 155.059 192.736 154.775C192.466 154.491 192.122 154.288 191.743 154.188L191.835 154.206C191.679 154.298 191.555 154.438 191.482 154.605C191.409 154.771 191.389 154.957 191.427 155.135C191.482 155.495 191.714 155.793 191.691 156.16C191.658 156.688 191.13 156.936 191.097 157.464C191.092 157.729 191.192 157.985 191.374 158.177Z" fill="white"/>
<path d="M188.23 149.208L188.238 149.206C188.295 149.155 188.347 149.099 188.395 149.04L188.23 149.208Z" fill="white"/>
<path d="M188.78 151.685C189.001 151.492 189.164 151.241 189.252 150.962C189.34 150.682 189.349 150.383 189.279 150.099C189.145 149.499 188.674 149.095 188.238 149.206C188.112 149.334 187.955 149.428 187.783 149.478C187.611 149.529 187.428 149.535 187.253 149.496C186.984 149.427 186.688 149.248 186.455 149.451C186.321 149.603 186.228 149.785 186.183 149.982C186.097 150.247 186.01 150.512 185.924 150.777C185.883 150.872 185.872 150.977 185.893 151.078C185.91 151.119 185.937 151.155 185.971 151.182C186.005 151.209 186.046 151.227 186.089 151.234C186.607 151.387 187.126 151.54 187.644 151.692C187.822 151.775 188.016 151.817 188.213 151.815C188.409 151.814 188.603 151.769 188.78 151.685Z" fill="white"/>
<path d="M227.9 185.889C227.66 185.497 227.421 185.105 227.181 184.713C226.946 184.259 226.624 183.855 226.234 183.524C226.15 183.453 226.052 183.4 225.947 183.367C225.842 183.334 225.732 183.322 225.622 183.331C225.512 183.341 225.405 183.372 225.308 183.423C225.21 183.474 225.123 183.544 225.052 183.628L225.04 183.644L225.069 183.868C225.71 184.555 226.148 185.408 226.331 186.33C226.386 186.731 226.367 187.146 226.415 187.548C226.42 187.735 226.462 187.919 226.538 188.089C226.614 188.26 226.723 188.414 226.859 188.542C227.236 188.794 227.679 188.422 227.947 187.969C228.187 187.597 228.295 187.154 228.253 186.713C228.193 186.417 228.073 186.137 227.9 185.889Z" fill="white"/>
<path d="M231.657 186.4C231.703 186.032 231.673 185.66 231.57 185.305C231.553 184.824 231.68 184.349 231.936 183.942C232.189 183.558 232.382 183.136 232.506 182.693C232.558 182.49 232.548 182.277 232.478 182.081C232.399 181.903 232.207 181.821 232.097 181.962L232.332 182.114C232.014 182.057 231.687 182.073 231.376 182.161C231.198 182.229 231.04 182.338 230.913 182.481C230.787 182.623 230.697 182.793 230.651 182.978C230.612 183.265 230.548 183.549 230.461 183.826C230.32 184.115 230.048 184.211 229.877 184.465C229.76 184.69 229.701 184.94 229.705 185.193C229.71 185.447 229.777 185.695 229.901 185.916C230.116 186.277 230.457 186.546 230.859 186.669C231.147 186.773 231.526 186.778 231.657 186.4Z" fill="white"/>
<path d="M238.349 188.419C238.453 188.69 238.593 188.945 238.764 189.18C239.084 189.502 239.519 189.304 239.908 189.226C240.261 189.17 240.622 189.211 240.953 189.344C241.285 189.477 241.574 189.697 241.79 189.981C241.64 189.229 241.311 188.524 240.831 187.926C240.352 187.328 239.736 186.854 239.035 186.543C238.124 186.228 237.164 186.078 236.201 186.1L236.036 186.142C236.456 187.363 237.773 187.335 238.349 188.419Z" fill="white"/>
<path d="M210.008 190.916L210.01 190.921L210.058 190.829L210.008 190.916Z" fill="white"/>
<path d="M208.992 192.88C208.771 193.282 208.581 193.701 208.423 194.132C208.214 194.83 208.076 195.547 208.01 196.272C207.959 196.685 207.943 197.212 208.201 197.413C208.275 197.462 208.365 197.483 208.453 197.471C208.542 197.459 208.622 197.415 208.681 197.348C208.824 197.196 208.942 197.021 209.029 196.831C209.537 195.956 209.931 195.02 210.202 194.045C210.485 193.011 210.418 191.912 210.01 190.921C209.671 191.574 209.332 192.227 208.992 192.88Z" fill="white"/>
<path d="M199.199 140.531C199.361 140.688 199.564 140.795 199.786 140.839C200.007 140.882 200.236 140.859 200.445 140.774C200.877 140.585 201.273 140.323 201.617 140C201.901 139.789 202.142 139.526 202.327 139.225C202.429 139.045 202.494 138.846 202.519 138.641C202.544 138.435 202.528 138.227 202.473 138.027C202.393 137.836 202.266 137.669 202.104 137.541C201.942 137.412 201.75 137.327 201.546 137.294C200.97 137.124 200.395 136.953 199.82 136.782L200.236 136.407C199.808 136.178 199.334 136.604 199.067 137.132C198.895 137.477 198.776 137.845 198.712 138.225C198.621 138.621 198.617 139.033 198.702 139.431C198.786 139.83 198.956 140.205 199.199 140.531Z" fill="white"/>
<path d="M209.354 137.122C209.516 137.3 209.74 137.411 209.98 137.43C210.221 137.45 210.46 137.377 210.649 137.227C210.811 137.105 210.946 136.95 211.045 136.772C211.144 136.594 211.204 136.398 211.222 136.195C211.262 135.743 211.039 135.24 210.719 135.201L210.792 134.777C210.177 134.666 209.419 134.644 209.09 135.391C208.978 135.678 208.944 135.988 208.991 136.292C209.037 136.595 209.162 136.882 209.354 137.122Z" fill="white"/>
<path d="M148.732 182.455C148.141 181.924 147.674 181.27 147.363 180.539C147.051 179.808 146.904 179.017 146.932 178.223C146.959 177.429 147.16 176.651 147.521 175.942C147.881 175.234 148.392 174.614 149.019 174.125L142.781 155.841L152.5 158.365L156.929 175.34C157.681 176.447 158.002 177.792 157.829 179.119C157.656 180.446 157.002 181.664 155.991 182.541C154.981 183.419 153.683 183.895 152.344 183.879C151.006 183.863 149.72 183.357 148.73 182.456L148.732 182.455Z" fill="#FFB7B7"/>
<path d="M145.946 171.359L155.375 167.157L152.207 135.262L155.158 103.1L142.568 96.3052L139.9 99.6686V99.745L138.487 140.414L138.494 140.445L145.946 171.359Z" fill="#E6E7E8"/>
<path d="M290.402 266.404C285.07 263.953 279.319 261.064 273.148 257.738C241.234 240.533 201.989 213.693 162.642 182.163C123.296 150.632 88.5489 118.178 64.8025 90.7801C53.235 77.4333 44.9027 66.0032 40.0376 56.8069C34.8864 47.0709 33.8476 40.1715 36.9492 36.3008C42.9921 28.7601 62.6716 35.5521 78.1166 42.5778L77.5522 43.819C56.3422 34.1707 42.3004 31.8037 38.0134 37.1536C32.5529 43.9673 42.693 63.1878 65.8329 89.8871C89.5271 117.225 124.21 149.618 163.495 181.099C202.779 212.579 241.951 239.37 273.796 256.538C304.894 273.304 325.863 279.012 331.324 272.198C335.857 266.541 329.673 252.292 313.911 232.076L314.987 231.238C326.439 245.927 338.755 265.105 332.388 273.051C329.286 276.921 322.326 277.411 311.701 274.505C305.645 272.848 298.518 270.137 290.402 266.404Z" fill="#E6E6E6"/>
<path d="M86.2294 174.469C71.5293 167.709 58.0954 160.921 46.3292 154.277C30.9499 145.592 19.2617 137.626 11.5895 130.599C3.46666 123.16 0.170006 117.011 1.79108 112.323C4.94862 103.19 25.7663 102.975 42.6741 104.403L42.5592 105.762C19.3405 103.801 5.31986 106.289 3.07944 112.769C0.226014 121.021 16.2343 135.717 46.9997 153.089C78.5019 170.878 122.052 189.735 169.63 206.185C217.207 222.637 263.104 234.709 298.865 240.179C333.79 245.521 355.457 243.853 358.311 235.6C360.68 228.749 350.068 217.406 328.43 203.661L329.161 202.51C344.884 212.497 362.927 226.423 359.599 236.046C357.979 240.734 351.587 243.533 340.604 244.366C330.23 245.153 316.118 244.198 298.659 241.527C262.819 236.045 216.837 223.951 169.184 207.474C139.291 197.137 110.973 185.847 86.2294 174.469Z" fill="#E6E6E6"/>
<path d="M108.532 105.077C112.92 105.077 116.478 101.519 116.478 97.1305C116.478 92.7421 112.92 89.1846 108.532 89.1846C104.143 89.1846 100.586 92.7421 100.586 97.1305C100.586 101.519 104.143 105.077 108.532 105.077Z" fill="#E6E6E6"/>
<path d="M265.154 202.061C267.84 202.061 270.018 199.884 270.018 197.197C270.018 194.511 267.84 192.333 265.154 192.333C262.467 192.333 260.289 194.511 260.289 197.197C260.289 199.884 262.467 202.061 265.154 202.061Z" fill="#FF6584"/>
<path d="M27.2592 244.759C31.6477 244.759 35.2052 241.202 35.2052 236.813C35.2052 232.425 31.6477 228.867 27.2592 228.867C22.8708 228.867 19.3132 232.425 19.3132 236.813C19.3132 241.202 22.8708 244.759 27.2592 244.759Z" fill="#E6E6E6"/>
</svg>
