<svg width="360" height="305" viewBox="0 0 360 305" fill="none" xmlns="http://www.w3.org/2000/svg">
<g clip-path="url(#clip0_604_2294)">
<path d="M282.942 68.4102C282.033 61.7402 280.892 54.579 276.188 49.7641C274.695 48.2363 272.908 47.0266 270.935 46.208C268.963 45.3894 266.844 44.9787 264.709 45.0008C262.573 45.023 260.463 45.4774 258.508 46.3366C256.552 47.1959 254.791 48.4423 253.33 50.0007C249.906 53.6539 248.394 58.7836 248.255 63.789C248.117 68.7945 249.232 73.7443 250.468 78.5965C257.013 78.7272 263.509 77.4486 269.516 74.8474C270.988 74.1288 272.515 73.5293 274.083 73.0545C275.67 72.6506 276.801 73.6669 278.277 74.3757L279.087 72.8241C279.751 74.0585 281.805 73.6926 282.55 72.5057C283.294 71.3188 283.131 69.7987 282.942 68.4102Z" fill="#2F2E41"/>
<path d="M255.607 96.573L257.502 86.893L243.294 80.7419L217.893 68.5725C217.716 67.4433 217.2 66.3945 216.414 65.5647C215.628 64.735 214.608 64.1634 213.49 63.9257C212.372 63.688 211.209 63.7952 210.153 64.2333C209.097 64.6714 208.199 65.4197 207.578 66.3792C206.957 67.3386 206.642 68.4641 206.674 69.6066C206.706 70.7491 207.085 71.8549 207.759 72.7777C208.434 73.7005 209.373 74.3968 210.451 74.7744C211.53 75.1521 212.698 75.1933 213.801 74.8927L237.987 89.8184L255.607 96.573Z" fill="#FFB8B8"/>
<path d="M246.069 94.935L256.36 84.415L256.564 84.4769C256.692 84.5157 269.478 88.4136 277.629 92.3746C278.55 92.7881 279.37 93.3977 280.032 94.1607C280.693 94.9237 281.18 95.8219 281.459 96.7925C281.865 98.1515 281.865 99.5994 281.459 100.958C281.053 102.317 280.259 103.528 279.175 104.443C278.06 105.44 276.682 106.096 275.205 106.331C273.727 106.567 272.213 106.371 270.844 105.769L246.069 94.935Z" fill="#0083FF"/>
<path d="M246.038 141.186L274.975 148.918L280.819 121.581L254.258 113.36L246.038 141.186Z" fill="#FFB8B8"/>
<path d="M278.214 133.766L249.946 127.265L244.533 114.146C244.092 112.273 244.199 110.313 244.841 108.499C245.483 106.686 246.632 105.095 248.152 103.916L258.481 95.196L264.017 88.1232L263.415 84.375C263.307 83.6258 263.464 82.8626 263.859 82.2171C264.254 81.5716 264.863 81.0844 265.579 80.8398L272.958 78.1936C273.774 77.8885 274.675 77.9049 275.479 78.2393C276.283 78.5737 276.93 79.2012 277.289 79.9947L278.071 81.8044C278.071 81.8044 281.408 83.3747 283.289 84.2579C284.257 84.6981 285.121 85.3377 285.825 86.135C286.529 86.9322 287.056 87.8692 287.373 88.8844C290.252 98.1899 289.476 108.243 285.202 116.996L278.214 133.766Z" fill="#0083FF"/>
<path d="M26.8146 273.037L13.1466 269.38C11.1369 262.226 10.9039 254.69 12.4678 247.425C18.4308 259.213 34.4454 261.435 43.9325 270.627C46.8694 273.516 49.1185 277.03 50.513 280.907C51.9076 284.784 52.4118 288.925 51.9883 293.023L55.2625 302.509C48.6166 302.246 42.1066 300.545 36.1812 297.524C30.2557 294.503 25.0557 290.234 20.9393 285.009C18.659 282.056 16.7597 278.826 15.2863 275.398C21.0056 274.56 26.8146 273.037 26.8146 273.037Z" fill="#F2F2F2"/>
<path d="M196.623 305.174H62.659C59.0688 305.17 55.6268 303.742 53.0881 301.204C50.5495 298.665 49.1215 295.223 49.1174 291.633V114.249C49.1215 110.659 50.5495 107.217 53.0882 104.678C55.6268 102.14 59.0688 100.712 62.659 100.708H196.623C200.213 100.712 203.655 102.14 206.194 104.678C208.732 107.217 210.161 110.659 210.165 114.249V291.633C210.161 295.223 208.732 298.665 206.194 301.204C203.655 303.742 200.213 305.17 196.623 305.174Z" fill="#E6E6E6"/>
<path d="M145.493 294.194H72.0756C68.8066 294.19 65.6725 292.89 63.361 290.578C61.0495 288.267 59.7493 285.133 59.7456 281.863V124.017C59.7493 120.748 61.0495 117.614 63.3611 115.302C65.6726 112.99 68.8066 111.69 72.0756 111.687H187.206C190.475 111.69 193.609 112.99 195.921 115.302C198.232 117.614 199.533 120.748 199.536 124.017V240.15C199.52 254.479 193.821 268.215 183.689 278.347C173.558 288.479 159.821 294.178 145.493 294.194Z" fill="white"/>
<path d="M175.721 141.991H83.5608C83.1661 141.991 82.7751 141.914 82.4103 141.763C82.0454 141.613 81.7138 141.392 81.4344 141.113C81.1549 140.834 80.9331 140.503 80.7816 140.139C80.6301 139.774 80.5519 139.384 80.5514 138.989C80.5509 138.594 80.6281 138.203 80.7787 137.838C80.9293 137.474 81.1503 137.142 81.4291 136.862C81.7078 136.583 82.0389 136.361 82.4034 136.21C82.7678 136.058 83.1586 135.98 83.5533 135.979H175.721C176.518 135.978 177.283 136.294 177.848 136.857C178.412 137.42 178.73 138.184 178.731 138.981C178.732 139.779 178.416 140.543 177.853 141.108C177.29 141.672 176.526 141.99 175.729 141.991H175.721Z" fill="#0083FF"/>
<path d="M175.721 153.868H83.5607C82.7636 153.868 81.999 153.551 81.4353 152.988C80.8716 152.424 80.5549 151.659 80.5549 150.862C80.5549 150.065 80.8716 149.301 81.4353 148.737C81.999 148.173 82.7636 147.856 83.5607 147.856H175.721C176.518 147.856 177.283 148.173 177.847 148.737C178.41 149.301 178.727 150.065 178.727 150.862C178.727 151.659 178.41 152.424 177.847 152.988C177.283 153.551 176.518 153.868 175.721 153.868Z" fill="#0083FF"/>
<path d="M123.51 165.744H83.5607C82.7636 165.744 81.999 165.427 81.4353 164.864C80.8716 164.3 80.5549 163.535 80.5549 162.738C80.5549 161.941 80.8716 161.177 81.4353 160.613C81.999 160.049 82.7636 159.732 83.5607 159.732H123.51C124.307 159.732 125.072 160.049 125.636 160.613C126.199 161.177 126.516 161.941 126.516 162.738C126.516 163.535 126.199 164.3 125.636 164.864C125.072 165.427 124.307 165.744 123.51 165.744Z" fill="#0083FF"/>
<path d="M175.721 190.619H83.5608C82.7636 190.62 81.9988 190.304 81.4344 189.741C80.87 189.178 80.5524 188.414 80.5514 187.617C80.5504 186.82 80.8661 186.055 81.4291 185.49C81.992 184.926 82.7561 184.608 83.5533 184.607H175.721C176.518 184.606 177.283 184.922 177.848 185.485C178.412 186.048 178.73 186.812 178.731 187.609C178.732 188.406 178.416 189.171 177.853 189.736C177.29 190.3 176.526 190.618 175.729 190.619H175.721Z" fill="#E4E4E4"/>
<path d="M175.721 202.496H83.5607C82.7636 202.496 81.999 202.179 81.4353 201.616C80.8716 201.052 80.5549 200.287 80.5549 199.49C80.5549 198.693 80.8716 197.928 81.4353 197.365C81.999 196.801 82.7636 196.484 83.5607 196.484H175.721C176.518 196.484 177.283 196.801 177.847 197.365C178.41 197.928 178.727 198.693 178.727 199.49C178.727 200.287 178.41 201.052 177.847 201.616C177.283 202.179 176.518 202.496 175.721 202.496Z" fill="#E4E4E4"/>
<path d="M123.51 214.373H83.5607C82.7636 214.373 81.999 214.056 81.4353 213.493C80.8716 212.929 80.5549 212.164 80.5549 211.367C80.5549 210.57 80.8716 209.805 81.4353 209.242C81.999 208.678 82.7636 208.361 83.5607 208.361H123.51C124.307 208.361 125.072 208.678 125.636 209.242C126.199 209.805 126.516 210.57 126.516 211.367C126.516 212.164 126.199 212.929 125.636 213.493C125.072 214.056 124.307 214.373 123.51 214.373Z" fill="#E4E4E4"/>
<path d="M175.721 239.247H83.5608C82.7636 239.248 81.9988 238.932 81.4344 238.369C80.87 237.806 80.5524 237.042 80.5514 236.245C80.5504 235.448 80.8661 234.683 81.4291 234.119C81.992 233.554 82.7561 233.237 83.5533 233.236H175.721C176.518 233.235 177.283 233.551 177.848 234.114C178.412 234.676 178.73 235.441 178.731 236.238C178.732 237.035 178.416 237.8 177.853 238.364C177.29 238.928 176.526 239.246 175.729 239.247H175.721Z" fill="#E4E4E4"/>
<path d="M175.721 251.124H83.5607C82.7636 251.124 81.999 250.807 81.4353 250.244C80.8716 249.68 80.5549 248.915 80.5549 248.118C80.5549 247.321 80.8716 246.556 81.4353 245.993C81.999 245.429 82.7636 245.112 83.5607 245.112H175.721C176.518 245.112 177.283 245.429 177.847 245.993C178.41 246.556 178.727 247.321 178.727 248.118C178.727 248.915 178.41 249.68 177.847 250.244C177.283 250.807 176.518 251.124 175.721 251.124Z" fill="#E4E4E4"/>
<path d="M123.51 263.001H83.5607C82.7645 262.999 82.0015 262.682 81.439 262.118C80.8766 261.555 80.5607 260.791 80.5607 259.995C80.5607 259.199 80.8766 258.435 81.439 257.872C82.0015 257.308 82.7645 256.991 83.5607 256.989H123.51C124.306 256.991 125.069 257.308 125.632 257.872C126.194 258.435 126.51 259.199 126.51 259.995C126.51 260.791 126.194 261.555 125.632 262.118C125.069 262.682 124.306 262.999 123.51 263.001Z" fill="#E4E4E4"/>
<path d="M203.549 143.232C225.13 143.232 242.624 125.737 242.624 104.157C242.624 82.5764 225.13 65.082 203.549 65.082C181.969 65.082 164.474 82.5764 164.474 104.157C164.474 125.737 181.969 143.232 203.549 143.232Z" fill="#0083FF"/>
<path opacity="0.16" d="M203.549 137.819C193.664 137.818 184.146 134.069 176.915 127.328C169.683 120.587 165.276 111.356 164.582 101.495C164.518 102.404 164.474 103.319 164.474 104.245C164.478 114.606 168.597 124.541 175.924 131.866C183.252 139.191 193.189 143.305 203.549 143.305C213.91 143.305 223.847 139.191 231.174 131.866C238.502 124.541 242.62 114.606 242.624 104.245C242.624 103.319 242.58 102.404 242.517 101.495C241.822 111.356 237.415 120.587 230.184 127.328C222.953 134.069 213.435 137.818 203.549 137.819Z" fill="#231F20"/>
<path d="M203.549 123.252C202.252 123.251 201.008 122.735 200.091 121.817C199.173 120.9 198.657 119.656 198.656 118.359V90.0437C198.655 89.4006 198.781 88.7637 199.027 88.1694C199.272 87.5751 199.633 87.0351 200.087 86.5801C200.542 86.1252 201.081 85.7643 201.675 85.518C202.269 85.2718 202.906 85.145 203.549 85.145C204.192 85.145 204.829 85.2718 205.423 85.518C206.017 85.7643 206.557 86.1252 207.011 86.5801C207.466 87.0351 207.826 87.5751 208.072 88.1694C208.317 88.7637 208.443 89.4006 208.443 90.0437V118.359C208.441 119.656 207.925 120.9 207.008 121.817C206.091 122.735 204.847 123.251 203.549 123.252Z" fill="white"/>
<path d="M184.498 104.201C184.5 102.904 185.016 101.66 185.933 100.743C186.851 99.8252 188.094 99.3091 189.392 99.3076H217.707C218.35 99.3069 218.987 99.433 219.581 99.6786C220.175 99.9242 220.715 100.285 221.17 100.739C221.625 101.194 221.986 101.733 222.232 102.327C222.479 102.921 222.605 103.558 222.605 104.201C222.605 104.844 222.479 105.481 222.232 106.075C221.986 106.669 221.625 107.209 221.17 107.663C220.715 108.118 220.175 108.478 219.581 108.724C218.987 108.969 218.35 109.095 217.707 109.095H189.392C188.095 109.093 186.851 108.577 185.933 107.66C185.016 106.742 184.5 105.499 184.498 104.201Z" fill="white"/>
<path d="M262.289 112.504L253.974 107.197L243.049 118.169L222.428 137.354C221.312 137.105 220.147 137.201 219.087 137.629C218.028 138.057 217.123 138.797 216.492 139.75C215.862 140.703 215.536 141.826 215.557 142.969C215.578 144.111 215.946 145.221 216.612 146.15C217.277 147.079 218.209 147.785 219.284 148.173C220.359 148.561 221.527 148.613 222.632 148.323C223.738 148.033 224.73 147.414 225.476 146.549C226.222 145.683 226.688 144.611 226.812 143.475L249.554 126.43L262.289 112.504Z" fill="#FFB8B8"/>
<path d="M257.274 120.781L251.25 107.354L251.382 107.188C251.465 107.083 259.772 96.6101 266.441 90.4744C267.163 89.7684 268.03 89.2284 268.983 88.8921C269.935 88.5557 270.949 88.4311 271.954 88.5269C273.367 88.6473 274.714 89.1774 275.831 90.0523C276.947 90.9271 277.783 92.1087 278.238 93.4521C278.758 94.8544 278.864 96.377 278.542 97.8379C278.221 99.2987 277.485 100.636 276.423 101.69L257.274 120.781Z" fill="#0083FF"/>
<path d="M262.716 76.6481C269.936 76.6481 275.788 70.7955 275.788 63.576C275.788 56.3565 269.936 50.5039 262.716 50.5039C255.497 50.5039 249.644 56.3565 249.644 63.576C249.644 70.7955 255.497 76.6481 262.716 76.6481Z" fill="#FFB8B8"/>
<path d="M242.406 295.811H237.002L234.43 274.967H242.406V295.811Z" fill="#FFB8B8"/>
<path d="M245.259 305.173H241.383L240.691 301.515L238.92 305.173H228.641C228.149 305.173 227.669 305.016 227.272 304.724C226.875 304.432 226.582 304.021 226.435 303.551C226.289 303.08 226.296 302.575 226.457 302.109C226.618 301.644 226.923 301.242 227.328 300.962L235.536 295.293V291.594L244.17 292.109L245.259 305.173Z" fill="#2F2E41"/>
<path d="M310.137 291.22L305.116 293.218L295.017 274.804L302.428 271.854L310.137 291.22Z" fill="#FFB8B8"/>
<path d="M316.25 298.864L312.649 300.298L310.653 297.154L310.36 301.209L300.81 305.01C300.353 305.192 299.849 305.224 299.372 305.099C298.895 304.975 298.471 304.701 298.161 304.318C297.85 303.935 297.671 303.463 297.648 302.971C297.625 302.479 297.76 301.993 298.033 301.583L303.562 293.28L302.194 289.843L310.406 287.129L316.25 298.864Z" fill="#2F2E41"/>
<path d="M244.491 286.235H233.313L236.402 233.718L234.144 198.121L234.148 198.093L242.571 147.066C243.234 143.042 245.024 139.289 247.735 136.242L247.838 136.126L276.026 143.088L278.861 149.551C288.538 155.307 291.594 187.765 291.72 189.147L295.817 229.609L305.839 279.2L298.782 283L298.663 282.765L276.382 238.458L262.311 191.734L253.299 233.787L244.491 286.235Z" fill="#2F2E41"/>
<path d="M278.905 64.1911C278.442 61.1526 277.959 58.0887 276.873 55.2276C275.786 52.3666 274.034 49.6868 271.522 48.066C267.543 45.5 262.392 45.9949 257.932 47.4709C254.482 48.6124 251.115 50.3475 248.682 53.1368C246.25 55.9261 244.883 59.9062 245.788 63.5534C250.546 62.4292 255.304 61.3051 260.062 60.1809L259.541 60.549C261.104 61.328 262.468 62.4527 263.531 63.8377C264.593 65.2227 265.327 66.8316 265.675 68.5422C266.015 70.2737 265.966 72.0592 265.532 73.7694C265.097 75.4797 264.288 77.0721 263.163 78.4313C266.408 77.2801 269.653 76.129 272.898 74.9779C274.901 74.2674 277.044 73.4487 278.232 71.6263C279.609 69.5133 279.289 66.7127 278.905 64.1911Z" fill="#2F2E41"/>
</g>
<defs>
<clipPath id="clip0_604_2294">
<rect width="360" height="305" fill="white"/>
</clipPath>
</defs>
</svg>
