<svg width="24" height="24" viewBox="0 0 24 24" fill="none" xmlns="http://www.w3.org/2000/svg">
<path d="M21.7209 12.752C21.8565 11.03 21.5303 9.30294 20.7759 7.749C19.5273 8.93539 18.0513 9.85658 16.4369 10.457C16.5667 12.0503 16.4948 13.6537 16.2229 15.229C18.1874 14.7342 20.0488 13.8956 21.7209 12.752ZM14.6339 15.55C14.9533 14.023 15.065 12.4599 14.9659 10.903C14.0139 11.13 13.0209 11.25 11.9999 11.25C10.9789 11.25 9.98594 11.13 9.03394 10.903C8.93719 12.4599 9.04884 14.0227 9.36594 15.55C11.1117 15.8176 12.8881 15.8176 14.6339 15.55ZM9.77194 17.119C11.2521 17.2941 12.7478 17.2941 14.2279 17.119C13.7192 18.7566 12.9682 20.3088 11.9999 21.724C11.0316 20.3088 10.2806 18.7566 9.77194 17.119ZM7.77694 15.23C7.50358 13.6542 7.43167 12.05 7.56294 10.456C5.94823 9.85572 4.47186 8.93453 3.22294 7.748C2.46876 9.30233 2.14289 11.0297 2.27894 12.752C3.95108 13.8956 5.81247 14.7352 7.77694 15.23ZM21.3559 14.752C20.851 16.4629 19.8871 18.0029 18.5688 19.2047C17.2505 20.4065 15.6282 21.2241 13.8779 21.569C14.7545 20.0953 15.4234 18.5076 15.8659 16.851C17.7954 16.4466 19.6485 15.7384 21.3559 14.753V14.752ZM2.64394 14.752C4.32594 15.723 6.17394 16.44 8.13394 16.851C8.57645 18.5076 9.24542 20.0953 10.1219 21.569C8.37183 21.2242 6.74959 20.4067 5.43129 19.2051C4.11298 18.0035 3.14899 16.4638 2.64394 14.753V14.752ZM13.8779 2.43C16.3557 2.91701 18.548 4.34583 19.9939 6.416C18.9266 7.49438 17.6525 8.34608 16.2479 8.92C15.8695 6.62782 15.0657 4.42664 13.8779 2.43ZM11.9999 2.276C13.4594 4.4081 14.4182 6.84236 14.8049 9.397C13.9079 9.627 12.9679 9.75 11.9999 9.75C11.0319 9.75 10.0919 9.628 9.19494 9.397C9.58163 6.84235 10.5405 4.40808 11.9999 2.276ZM10.1219 2.43C8.93417 4.42663 8.13035 6.62781 7.75194 8.92C6.3474 8.3461 5.07325 7.4944 4.00594 6.416C5.45198 4.34613 7.64433 2.91666 10.1219 2.43Z" fill="#0083FF"/>
</svg>
