<svg width="16" height="16" viewBox="0 0 16 16" fill="none" xmlns="http://www.w3.org/2000/svg">
<path fill-rule="evenodd" clip-rule="evenodd" d="M4.38002 1.55238C6.89602 1.26029 9.43736 1.26029 11.9534 1.55238C12.9514 1.66838 13.6667 2.52571 13.6667 3.50571V13.8344C13.6666 13.9195 13.6447 14.0032 13.6032 14.0776C13.5617 14.1519 13.5018 14.2144 13.4294 14.2591C13.3569 14.3039 13.2743 14.3294 13.1892 14.3332C13.1042 14.337 13.0195 14.3191 12.9434 14.281L8.16669 11.8937L3.39002 14.2824C3.31374 14.3205 3.22899 14.3384 3.14382 14.3345C3.05865 14.3306 2.9759 14.305 2.90342 14.2601C2.83093 14.2152 2.77114 14.1525 2.7297 14.078C2.68827 14.0035 2.66658 13.9196 2.66669 13.8344V3.50571C2.66669 2.52571 3.38202 1.66838 4.38002 1.55238Z" fill="black"/>
</svg>
